<?xml version="1.0" standalone="no"?><!DOCTYPE svg PUBLIC "-//W3C//DTD SVG 1.1//EN" "http://www.w3.org/Graphics/SVG/1.1/DTD/svg11.dtd"><svg t="1552563420377" class="icon" style="" viewBox="0 0 1024 1024" version="1.1" xmlns="http://www.w3.org/2000/svg" p-id="1457" xmlns:xlink="http://www.w3.org/1999/xlink" width="200" height="200"><defs><style type="text/css"></style></defs><path d="M899.5 336.2L551.8 92c-23.2-16.3-54.3-16.3-77.5-0.1L124.9 336.2C106.8 348.8 96 369.5 96 391.5v501.2c0 37.2 30.3 67.5 67.5 67.5H366v0.1h292v-0.1h202.6c37.2 0 67.5-30.3 67.5-67.5V391.5c0.1-22-10.7-42.6-28.6-55.3z m-305.4 560H430V600.9c0-45.2 36.8-82 82-82s82 36.8 82 82v295.3z m270.1-3.5c0 1.9-1.6 3.5-3.5 3.5H658.1V600.9c0-80.5-65.5-146-146-146s-146 65.5-146 146v295.3H163.5c-1.9 0-3.5-1.6-3.5-3.5V391.5c0-1.1 0.6-2.2 1.5-2.9l349.4-244.3c0.6-0.4 1.3-0.6 2-0.6s1.4 0.2 2 0.6l347.7 244.2c0.9 0.7 1.5 1.7 1.5 2.9v501.3z" p-id="1458" fill="#1296db"></path></svg>